<svg xmlns="http://www.w3.org/2000/svg" xmlns:xlink="http://www.w3.org/1999/xlink" viewBox="0 0 630 20"><defs><style>.cls-1,.cls-2{fill:none;}.cls-2{stroke:#1d1d1b;stroke-linejoin:round;stroke-width:0.3px;}.cls-3{isolation:isolate;}.cls-4{mask:url(#mask);}.cls-5{fill:#1a1a1a;}.cls-6{mix-blend-mode:exclusion;fill:url(#Líneas_diagonales);}.cls-7{fill:url(#Degradado_sin_nombre_11);}.cls-8{filter:url(#luminosity-invert-noclip);}</style><filter id="luminosity-invert-noclip" x="-79.59" y="-8485" width="709.59" height="32766" filterUnits="userSpaceOnUse" color-interpolation-filters="sRGB"><feColorMatrix values="-1 0 0 0 1 0 -1 0 0 1 0 0 -1 0 1 0 0 0 1 0" result="invert"/><feFlood flood-color="#fff" result="bg"/><feBlend in="invert" in2="bg"/></filter><mask id="mask" x="-79.59" y="-8485" width="709.59" height="32766" maskUnits="userSpaceOnUse"><g class="cls-8"/></mask><pattern id="Líneas_diagonales" data-name="Líneas diagonales" width="72" height="72" patternUnits="userSpaceOnUse" viewBox="0 0 72 72"><rect class="cls-1" width="72" height="72"/><line class="cls-2" x1="64.52" y1="82.52" x2="82.52" y2="64.52"/><line class="cls-2" x1="64.52" y1="88.52" x2="88.52" y2="64.52"/><line class="cls-2" x1="64.52" y1="94.52" x2="94.52" y2="64.52"/><line class="cls-2" x1="64.52" y1="100.52" x2="100.52" y2="64.52"/><line class="cls-2" x1="64.52" y1="106.52" x2="106.52" y2="64.52"/><line class="cls-2" x1="64.52" y1="112.52" x2="112.52" y2="64.52"/><line class="cls-2" x1="64.52" y1="118.52" x2="118.52" y2="64.52"/><line class="cls-2" x1="64.52" y1="124.52" x2="124.52" y2="64.52"/><line class="cls-2" x1="64.52" y1="130.52" x2="130.52" y2="64.52"/><line class="cls-2" x1="64.52" y1="136.52" x2="136.52" y2="64.52"/><line class="cls-2" x1="64.52" y1="142.52" x2="142.52" y2="64.52"/><line class="cls-2" x1="64.52" y1="148.51" x2="148.52" y2="64.52"/><line class="cls-2" x1="70.52" y1="148.51" x2="148.52" y2="70.52"/><line class="cls-2" x1="-7.48" y1="82.52" x2="10.52" y2="64.52"/><line class="cls-2" x1="-7.48" y1="88.52" x2="16.52" y2="64.52"/><line class="cls-2" x1="-7.48" y1="94.52" x2="22.52" y2="64.52"/><line class="cls-2" x1="-7.48" y1="100.52" x2="28.52" y2="64.52"/><line class="cls-2" x1="-7.48" y1="106.52" x2="34.52" y2="64.52"/><line class="cls-2" x1="-7.48" y1="112.52" x2="40.52" y2="64.52"/><line class="cls-2" x1="-7.48" y1="118.52" x2="46.52" y2="64.52"/><line class="cls-2" x1="-7.48" y1="124.52" x2="52.52" y2="64.52"/><line class="cls-2" x1="-7.48" y1="130.52" x2="58.52" y2="64.52"/><line class="cls-2" x1="-7.48" y1="136.52" x2="64.52" y2="64.52"/><line class="cls-2" x1="-7.48" y1="142.52" x2="70.52" y2="64.52"/><line class="cls-2" x1="-7.48" y1="148.51" x2="76.52" y2="64.52"/><line class="cls-2" x1="-1.48" y1="148.51" x2="76.52" y2="70.52"/><line class="cls-2" x1="-79.48" y1="148.51" x2="4.52" y2="64.52"/><line class="cls-2" x1="-73.48" y1="148.51" x2="4.52" y2="70.52"/><line class="cls-2" x1="64.52" y1="10.52" x2="82.52" y2="-7.48"/><line class="cls-2" x1="64.52" y1="16.52" x2="88.52" y2="-7.48"/><line class="cls-2" x1="64.52" y1="22.52" x2="94.52" y2="-7.48"/><line class="cls-2" x1="64.52" y1="28.52" x2="100.52" y2="-7.48"/><line class="cls-2" x1="64.52" y1="34.52" x2="106.52" y2="-7.48"/><line class="cls-2" x1="64.52" y1="40.52" x2="112.52" y2="-7.48"/><line class="cls-2" x1="64.52" y1="46.52" x2="118.52" y2="-7.48"/><line class="cls-2" x1="64.52" y1="52.52" x2="124.52" y2="-7.48"/><line class="cls-2" x1="64.52" y1="58.52" x2="130.52" y2="-7.48"/><line class="cls-2" x1="64.52" y1="64.52" x2="136.52" y2="-7.48"/><line class="cls-2" x1="64.52" y1="70.52" x2="142.52" y2="-7.48"/><line class="cls-2" x1="64.52" y1="76.51" x2="148.52" y2="-7.48"/><line class="cls-2" x1="70.52" y1="76.51" x2="148.52" y2="-1.48"/><line class="cls-2" x1="-7.48" y1="10.52" x2="10.52" y2="-7.48"/><line class="cls-2" x1="-7.48" y1="16.52" x2="16.52" y2="-7.48"/><line class="cls-2" x1="-7.48" y1="22.52" x2="22.52" y2="-7.48"/><line class="cls-2" x1="-7.48" y1="28.52" x2="28.52" y2="-7.48"/><line class="cls-2" x1="-7.48" y1="34.52" x2="34.52" y2="-7.48"/><line class="cls-2" x1="-7.48" y1="40.52" x2="40.52" y2="-7.48"/><line class="cls-2" x1="-7.48" y1="46.52" x2="46.52" y2="-7.48"/><line class="cls-2" x1="-7.48" y1="52.52" x2="52.52" y2="-7.48"/><line class="cls-2" x1="-7.48" y1="58.52" x2="58.52" y2="-7.48"/><line class="cls-2" x1="-7.48" y1="64.52" x2="64.52" y2="-7.48"/><line class="cls-2" x1="-7.48" y1="70.52" x2="70.52" y2="-7.48"/><line class="cls-2" x1="-7.48" y1="76.51" x2="76.52" y2="-7.48"/><line class="cls-2" x1="-1.48" y1="76.51" x2="76.52" y2="-1.48"/><line class="cls-2" x1="4.52" y1="76.51" x2="76.52" y2="4.52"/><line class="cls-2" x1="10.52" y1="76.51" x2="76.52" y2="10.52"/><line class="cls-2" x1="16.52" y1="76.51" x2="76.52" y2="16.52"/><line class="cls-2" x1="22.52" y1="76.51" x2="76.52" y2="22.52"/><line class="cls-2" x1="28.52" y1="76.51" x2="76.52" y2="28.52"/><line class="cls-2" x1="34.52" y1="76.51" x2="76.52" y2="34.52"/><line class="cls-2" x1="40.52" y1="76.51" x2="76.52" y2="40.52"/><line class="cls-2" x1="46.52" y1="76.51" x2="76.52" y2="46.52"/><line class="cls-2" x1="52.52" y1="76.51" x2="76.52" y2="52.52"/><line class="cls-2" x1="58.52" y1="76.51" x2="76.52" y2="58.52"/><line class="cls-2" x1="64.52" y1="76.51" x2="76.52" y2="64.52"/><line class="cls-2" x1="-79.48" y1="76.51" x2="4.52" y2="-7.48"/><line class="cls-2" x1="-73.48" y1="76.51" x2="4.52" y2="-1.48"/><line class="cls-2" x1="-67.48" y1="76.51" x2="4.52" y2="4.52"/><line class="cls-2" x1="-61.48" y1="76.51" x2="4.52" y2="10.52"/><line class="cls-2" x1="-55.48" y1="76.51" x2="4.52" y2="16.52"/><line class="cls-2" x1="-49.48" y1="76.51" x2="4.52" y2="22.52"/><line class="cls-2" x1="-43.48" y1="76.51" x2="4.52" y2="28.52"/><line class="cls-2" x1="-37.48" y1="76.51" x2="4.52" y2="34.52"/><line class="cls-2" x1="-31.48" y1="76.51" x2="4.52" y2="40.52"/><line class="cls-2" x1="-25.48" y1="76.51" x2="4.52" y2="46.52"/><line class="cls-2" x1="-19.48" y1="76.51" x2="4.52" y2="52.52"/><line class="cls-2" x1="-13.48" y1="76.51" x2="4.52" y2="58.52"/><line class="cls-2" x1="-7.48" y1="76.51" x2="4.52" y2="64.52"/><line class="cls-2" x1="64.52" y1="4.51" x2="148.52" y2="-79.48"/><line class="cls-2" x1="70.52" y1="4.51" x2="148.52" y2="-73.48"/><line class="cls-2" x1="-7.48" y1="4.51" x2="76.52" y2="-79.48"/><line class="cls-2" x1="-1.48" y1="4.51" x2="76.52" y2="-73.48"/><line class="cls-2" x1="4.52" y1="4.51" x2="76.52" y2="-67.48"/><line class="cls-2" x1="10.52" y1="4.51" x2="76.52" y2="-61.48"/><line class="cls-2" x1="16.52" y1="4.51" x2="76.52" y2="-55.48"/><line class="cls-2" x1="22.52" y1="4.51" x2="76.52" y2="-49.48"/><line class="cls-2" x1="28.52" y1="4.51" x2="76.52" y2="-43.48"/><line class="cls-2" x1="34.52" y1="4.51" x2="76.52" y2="-37.48"/><line class="cls-2" x1="40.52" y1="4.51" x2="76.52" y2="-31.48"/><line class="cls-2" x1="46.52" y1="4.51" x2="76.52" y2="-25.48"/><line class="cls-2" x1="52.52" y1="4.51" x2="76.52" y2="-19.48"/><line class="cls-2" x1="58.52" y1="4.51" x2="76.52" y2="-13.48"/><line class="cls-2" x1="64.52" y1="4.51" x2="76.52" y2="-7.48"/><line class="cls-2" x1="-79.48" y1="4.51" x2="4.52" y2="-79.48"/><line class="cls-2" x1="-73.48" y1="4.51" x2="4.52" y2="-73.48"/><line class="cls-2" x1="-67.48" y1="4.51" x2="4.52" y2="-67.48"/><line class="cls-2" x1="-61.48" y1="4.51" x2="4.52" y2="-61.48"/><line class="cls-2" x1="-55.48" y1="4.51" x2="4.52" y2="-55.48"/><line class="cls-2" x1="-49.48" y1="4.51" x2="4.52" y2="-49.48"/><line class="cls-2" x1="-43.48" y1="4.51" x2="4.52" y2="-43.48"/><line class="cls-2" x1="-37.48" y1="4.51" x2="4.52" y2="-37.48"/><line class="cls-2" x1="-31.48" y1="4.51" x2="4.52" y2="-31.48"/><line class="cls-2" x1="-25.48" y1="4.51" x2="4.52" y2="-25.48"/><line class="cls-2" x1="-19.48" y1="4.51" x2="4.52" y2="-19.48"/><line class="cls-2" x1="-13.48" y1="4.51" x2="4.52" y2="-13.48"/><line class="cls-2" x1="-7.48" y1="4.51" x2="4.52" y2="-7.48"/></pattern><linearGradient id="Degradado_sin_nombre_11" x1="315" y1="20" x2="315" gradientUnits="userSpaceOnUse"><stop offset="0" stop-color="#333"/><stop offset="0.55" stop-color="#999"/><stop offset="1" stop-color="#333"/></linearGradient></defs><g class="cls-3"><g id="Capa_2" data-name="Capa 2"><g id="Capa_1-2" data-name="Capa 1"><g class="cls-4"><g id="main_menu" data-name="main menu"><rect class="cls-5" width="630" height="20"/><rect class="cls-6" width="630" height="20"/><path class="cls-7" d="M629,1V19H1V1H629m1-1H0V20H630V0Z"/></g></g></g></g></g></svg>