<svg xmlns="http://www.w3.org/2000/svg" xmlns:xlink="http://www.w3.org/1999/xlink" viewBox="0 0 240 80"><defs><style>.cls-1{fill:url(#Degradado_sin_nombre_52);}.cls-2{fill:url(#Degradado_sin_nombre_40);}.cls-3{fill:url(#Degradado_sin_nombre_116);}.cls-4{fill:url(#Degradado_sin_nombre_61);}.cls-5{fill:url(#Degradado_sin_nombre_111);}.cls-10,.cls-11,.cls-12,.cls-13,.cls-6,.cls-7,.cls-8,.cls-9{fill:none;stroke-miterlimit:10;stroke-width:2px;}.cls-6{stroke:url(#Degradado_sin_nombre_81);}.cls-7{stroke:url(#Degradado_sin_nombre_165);}.cls-8{stroke:url(#Degradado_sin_nombre_81-2);}.cls-9{stroke:url(#Degradado_sin_nombre_165-2);}.cls-10{stroke:url(#Degradado_sin_nombre_82);}.cls-11{stroke:url(#Degradado_sin_nombre_165-3);}.cls-12{stroke:url(#Degradado_sin_nombre_81-3);}.cls-13{stroke:url(#Degradado_sin_nombre_165-4);}</style><linearGradient id="Degradado_sin_nombre_52" x1="120" y1="80" x2="120" gradientUnits="userSpaceOnUse"><stop offset="0" stop-color="#333"/><stop offset="1" stop-color="#4d4d4d"/></linearGradient><linearGradient id="Degradado_sin_nombre_40" x1="120" y1="80" x2="120" gradientUnits="userSpaceOnUse"><stop offset="0.06" stop-color="#4d4d4d"/><stop offset="0.53" stop-color="gray"/><stop offset="1" stop-color="#666"/></linearGradient><linearGradient id="Degradado_sin_nombre_116" x1="120" y1="78" x2="120" y2="57" gradientUnits="userSpaceOnUse"><stop offset="0" stop-color="#999"/><stop offset="0" stop-color="#959595"/><stop offset="0.04" stop-color="#767576"/><stop offset="0.08" stop-color="#5c5a5b"/><stop offset="0.12" stop-color="#474445"/><stop offset="0.17" stop-color="#373334"/><stop offset="0.24" stop-color="#2b2829"/><stop offset="0.33" stop-color="#252122"/><stop offset="0.58" stop-color="#231f20"/><stop offset="1"/></linearGradient><linearGradient id="Degradado_sin_nombre_61" x1="120" y1="76.89" x2="120" y2="58.58" gradientUnits="userSpaceOnUse"><stop offset="0.06" stop-color="#14191c"/><stop offset="1" stop-color="#292e33"/></linearGradient><linearGradient id="Degradado_sin_nombre_111" x1="120" y1="76.58" x2="120" y2="58.58" gradientUnits="userSpaceOnUse"><stop offset="0.9" stop-color="#666" stop-opacity="0"/><stop offset="0.94" stop-color="#666" stop-opacity="0"/><stop offset="1" stop-color="#666"/></linearGradient><linearGradient id="Degradado_sin_nombre_81" x1="178" y1="77" x2="178" y2="58.5" gradientUnits="userSpaceOnUse"><stop offset="0" stop-color="#727071"/><stop offset="0" stop-color="#6f6d6e"/><stop offset="0.01" stop-color="#686868"/><stop offset="0.02" stop-color="#666"/><stop offset="0.02" stop-color="#565656"/><stop offset="0.03" stop-color="#3b3b3b"/><stop offset="0.03" stop-color="#252525"/><stop offset="0.04" stop-color="#141414"/><stop offset="0.05" stop-color="#090909"/><stop offset="0.06" stop-color="#020202"/><stop offset="0.1"/></linearGradient><linearGradient id="Degradado_sin_nombre_165" x1="177" y1="67.79" x2="179" y2="67.79" gradientUnits="userSpaceOnUse"><stop offset="0" stop-color="#727071"/><stop offset="0.02" stop-color="#666"/><stop offset="0.04" stop-color="#565656" stop-opacity="0.84"/><stop offset="0.07" stop-color="#3b3b3b" stop-opacity="0.58"/><stop offset="0.11" stop-color="#252525" stop-opacity="0.37"/><stop offset="0.15" stop-color="#141414" stop-opacity="0.2"/><stop offset="0.21" stop-color="#090909" stop-opacity="0.08"/><stop offset="0.28" stop-color="#020202" stop-opacity="0.02"/><stop offset="0.5" stop-opacity="0"/><stop offset="0.69" stop-color="#020202" stop-opacity="0.02"/><stop offset="0.76" stop-color="#090909" stop-opacity="0.11"/><stop offset="0.81" stop-color="#141414" stop-opacity="0.26"/><stop offset="0.85" stop-color="#252525" stop-opacity="0.47"/><stop offset="0.88" stop-color="#3b3b3b" stop-opacity="0.75"/><stop offset="0.91" stop-color="#4f4f4f"/><stop offset="0.96" stop-color="#515151"/><stop offset="0.98" stop-color="#585757"/><stop offset="0.99" stop-color="#636263"/><stop offset="1" stop-color="#727071"/></linearGradient><linearGradient id="Degradado_sin_nombre_81-2" x1="207.25" x2="207.25" y2="58.34" xlink:href="#Degradado_sin_nombre_81"/><linearGradient id="Degradado_sin_nombre_165-2" x1="206.25" y1="67.79" x2="208.25" y2="67.79" xlink:href="#Degradado_sin_nombre_165"/><linearGradient id="Degradado_sin_nombre_82" x1="120" x2="120" y2="58.34" xlink:href="#Degradado_sin_nombre_81"/><linearGradient id="Degradado_sin_nombre_165-3" x1="119" y1="67.79" x2="121" y2="67.79" xlink:href="#Degradado_sin_nombre_165"/><linearGradient id="Degradado_sin_nombre_81-3" x1="62" x2="62" y2="58.34" xlink:href="#Degradado_sin_nombre_81"/><linearGradient id="Degradado_sin_nombre_165-4" x1="61" y1="67.79" x2="63" y2="67.79" xlink:href="#Degradado_sin_nombre_165"/></defs><g id="Capa_2" data-name="Capa 2"><g id="Capa_2-2" data-name="Capa 2"><rect class="cls-1" width="240" height="80"/><path class="cls-2" d="M239,1V79H1V1H239m1-1H0V80H240V0Z"/><rect x="2.5" y="57" width="235" height="21" rx="4"/><path class="cls-3" d="M233.5,58a3,3,0,0,1,3,3V74a3,3,0,0,1-3,3H6.5a3,3,0,0,1-3-3V61a3,3,0,0,1,3-3h227m0-1H6.5a4,4,0,0,0-4,4V74a4,4,0,0,0,4,4h227a4,4,0,0,0,4-4V61a4,4,0,0,0-4-4Z"/><rect class="cls-4" x="3.5" y="58.58" width="233" height="18.31" rx="3.12"/><rect class="cls-5" x="3.5" y="58.58" width="233" height="18" rx="3.09"/><g id="LINEA5"><line class="cls-6" x1="178" y1="58.5" x2="178" y2="77"/><line class="cls-7" x1="178" y1="58.58" x2="178" y2="77"/></g><g id="LINEA4"><line class="cls-8" x1="207.25" y1="58.34" x2="207.25" y2="77"/><line class="cls-9" x1="207.25" y1="58.58" x2="207.25" y2="77"/></g><g id="LINEA2"><line class="cls-10" x1="120" y1="58.34" x2="120" y2="77"/><line class="cls-11" x1="120" y1="58.58" x2="120" y2="77"/></g><g id="LINEA1"><line class="cls-12" x1="62" y1="58.34" x2="62" y2="77"/><line class="cls-13" x1="62" y1="58.58" x2="62" y2="77"/></g></g></g></svg>